<svg width="32" height="33" viewBox="0 0 32 33" fill="none" xmlns="http://www.w3.org/2000/svg">
<g id="BackEndIcon">
<g id="icons_Q2">
<g id="Group">
<path id="Shape" d="M17.3635 22.2405V28.7405C17.3635 29.4585 17.974 30.0405 18.7271 30.0405H29.6362C30.3894 30.0405 30.9999 29.4585 30.9999 28.7405V22.2405H17.3635ZM21.4544 26.1405C20.7013 26.1405 20.0908 25.5585 20.0908 24.8405C20.0908 24.1226 20.7013 23.5405 21.4544 23.5405C22.2075 23.5405 22.8181 24.1226 22.8181 24.8405C22.8181 25.5585 22.2075 26.1405 21.4544 26.1405ZM25.5453 26.1405C24.7922 26.1405 24.1817 25.5585 24.1817 24.8405C24.1817 24.1226 24.7922 23.5405 25.5453 23.5405C26.2984 23.5405 26.909 24.1226 26.909 24.8405C26.909 25.5585 26.2984 26.1405 25.5453 26.1405ZM17.3635 14.4405V19.6405H30.9999V14.4405H17.3635ZM21.4544 18.3405C20.7013 18.3405 20.0908 17.7585 20.0908 17.0405C20.0908 16.3226 20.7013 15.7405 21.4544 15.7405C22.2075 15.7405 22.8181 16.3226 22.8181 17.0405C22.8181 17.7585 22.2075 18.3405 21.4544 18.3405ZM25.5453 18.3405C24.7922 18.3405 24.1817 17.7585 24.1817 17.0405C24.1817 16.3226 24.7922 15.7405 25.5453 15.7405C26.2984 15.7405 26.909 16.3226 26.909 17.0405C26.909 17.7585 26.2984 18.3405 25.5453 18.3405ZM29.6362 4.04053H2.36351C1.6104 4.04053 0.999878 4.62256 0.999878 5.34053V11.8405H30.9999V5.34053C30.9999 4.62256 30.3894 4.04053 29.6362 4.04053ZM21.4544 10.5405C20.7013 10.5405 20.0908 9.9585 20.0908 9.24053C20.0908 8.52256 20.7013 7.94053 21.4544 7.94053C22.2075 7.94053 22.8181 8.52256 22.8181 9.24053C22.8181 9.9585 22.2075 10.5405 21.4544 10.5405ZM25.5453 10.5405C24.7922 10.5405 24.1817 9.9585 24.1817 9.24053C24.1817 8.52256 24.7922 7.94053 25.5453 7.94053C26.2984 7.94053 26.909 8.52256 26.909 9.24053C26.909 9.9585 26.2984 10.5405 25.5453 10.5405Z" fill="black"/>
<path id="Shape_2" d="M14.6362 24.2555V22.8255L12.1135 22.2405C12.0529 21.9927 11.9613 21.7526 11.8408 21.5255L13.2044 19.4455L12.1135 18.4055L9.9317 19.7055L9.1817 19.3805L8.56806 17.0405H7.06806L6.45442 19.3805L5.70442 19.7055L3.52261 18.4055L2.4317 19.4455L3.79533 21.5255C3.67478 21.7526 3.58322 21.9927 3.52261 22.2405L0.999878 22.8255V24.2555L3.52261 24.8405C3.58322 25.0884 3.67478 25.3284 3.79533 25.5555L2.4317 27.6355L3.52261 28.6755L5.70442 27.3755L6.45442 27.6355L7.06806 30.0405H8.56806L9.1817 27.6355L9.9317 27.3755L12.1135 28.6755L13.2044 27.6355L11.8408 25.5555C11.9613 25.3284 12.0529 25.0884 12.1135 24.8405L14.6362 24.2555ZM7.81806 25.4905C6.68839 25.4905 5.77261 24.6175 5.77261 23.5405C5.77261 22.4636 6.68839 21.5905 7.81806 21.5905C8.94773 21.5905 9.86351 22.4636 9.86351 23.5405C9.88277 24.0631 9.67345 24.5698 9.2856 24.9396C8.89775 25.3093 8.36622 25.5089 7.81806 25.4905Z" fill="black"/>
</g>
</g>
</g>
</svg>
