<svg width="16" height="22" viewBox="0 0 16 22" fill="none" xmlns="http://www.w3.org/2000/svg">
<g id="FronEndDevIcon">
<path id="Vector" fill-rule="evenodd" clip-rule="evenodd" d="M4.6667 0.290527C2.41154 0.290527 0.583374 2.1187 0.583374 4.37386C0.583374 5.75018 1.26429 6.96746 2.30763 7.7072C1.26429 8.44693 0.583374 9.66423 0.583374 11.0405C0.583374 12.4168 1.26429 13.6341 2.30764 14.3738C1.26429 15.1136 0.583374 16.3308 0.583374 17.7072C0.583374 19.9623 2.41154 21.7905 4.6667 21.7905C6.92187 21.7905 8.75007 19.9623 8.75007 17.7072V14.2029C9.45377 14.7785 10.3533 15.1238 11.3334 15.1238C13.5886 15.1238 15.4167 13.2957 15.4167 11.0405C15.4167 9.66423 14.7358 8.44693 13.6925 7.70719C14.7358 6.96746 15.4167 5.75018 15.4167 4.37386C15.4167 2.1187 13.5886 0.290527 11.3334 0.290527H4.6667ZM7.25007 13.6238H4.6667C3.23996 13.6238 2.08337 12.4672 2.08337 11.0405C2.08337 9.61383 3.23996 8.45719 4.6667 8.4572L7.25007 8.45719V11.0405V13.6238ZM4.6667 6.9572H7.25007V1.79053H4.6667C3.23996 1.79053 2.08337 2.94713 2.08337 4.37386C2.08337 5.8006 3.23996 6.9572 4.6667 6.9572ZM13.9167 4.37386C13.9167 5.79967 12.7616 6.9557 11.3362 6.9572L10.0431 6.95719H8.75007V1.79053H11.3334C12.7601 1.79053 13.9167 2.94713 13.9167 4.37386ZM8.75007 11.0373C8.75177 9.61313 9.90597 8.45891 11.3302 8.4572H11.3359C12.7615 8.45854 13.9167 9.61463 13.9167 11.0405C13.9167 12.4672 12.7601 13.6238 11.3334 13.6238C9.90767 13.6238 8.75177 12.4689 8.75007 11.0437V11.0373ZM4.6667 15.1238C3.23996 15.1238 2.08337 16.2804 2.08337 17.7072C2.08337 19.1339 3.23996 20.2905 4.6667 20.2905C6.09347 20.2905 7.25007 19.1339 7.25007 17.7072V15.1238H4.6667Z" fill="black"/>
</g>
</svg>
