<svg width="27" height="24" viewBox="0 0 27 24" fill="none" xmlns="http://www.w3.org/2000/svg">
<g id="FundamentalsIcon">
<path id="Path" d="M25.6961 6.15108L13.417 0.366278C13.2206 0.274392 12.9932 0.274392 12.7973 0.366278L0.52038 6.15108C0.268697 6.26934 0.108215 6.52123 0.108215 6.79805C0.108215 7.07371 0.268697 7.32531 0.52038 7.44416L12.7973 13.2281C12.8953 13.2739 13.0011 13.2974 13.1069 13.2974C13.213 13.2974 13.3191 13.2739 13.417 13.2281L25.6961 7.44416C25.9477 7.32531 26.1082 7.07371 26.1082 6.79805C26.1082 6.52123 25.9477 6.26934 25.6961 6.15108Z" fill="black"/>
<path id="Path_2" d="M13.1074 18.2974C12.9688 18.2974 12.8304 18.2697 12.7016 18.2138L0.647975 12.9505C0.176428 12.7445 -0.0239008 12.2267 0.199675 11.7936C0.423538 11.3605 0.98664 11.1762 1.45905 11.3816L13.1068 16.4677L24.7577 11.3816C25.2281 11.1759 25.7927 11.3597 26.0165 11.7936C26.2404 12.227 26.0404 12.7445 25.5682 12.9505L13.5129 18.2138C13.3846 18.2694 13.246 18.2974 13.1074 18.2974Z" fill="#1C1C1C"/>
<path id="Path_3" d="M13.1072 23.2974C12.9686 23.2974 12.8303 23.2697 12.7014 23.2138L0.647969 17.9511C0.176427 17.7454 -0.0238993 17.2269 0.199674 16.7936C0.423535 16.3597 0.98663 16.1759 1.45903 16.3816L13.1067 21.467L24.7577 16.3816C25.229 16.1759 25.7927 16.3597 26.0165 16.7936C26.2404 17.2269 26.0403 17.7451 25.5688 17.9511L13.5128 23.2138C13.3845 23.2697 13.2459 23.2974 13.1072 23.2974Z" fill="#1C1C1C"/>
</g>
</svg>
