<svg width="24" height="26" viewBox="0 0 24 26" fill="none" xmlns="http://www.w3.org/2000/svg">
<g id="GameDevIcon">
<path id="Shape" d="M15.1219 10.3747L12.4999 11.7064M12.4999 11.7064L9.87781 10.3747M12.4999 11.7064V15.0417M15.1219 2.37226L12.4999 1.04053L9.87781 2.37226M4.62192 21.0405L1.99988 19.7088V16.3735M20.3778 21.0405L22.9999 19.7088V16.3735" stroke="#292D32" stroke-width="1.5" stroke-linecap="round" stroke-linejoin="round"/>
<g id="Group" opacity="0.4">
<path id="Path" d="M22.4134 6.37207L19.8129 7.7038" stroke="#292D32" stroke-width="1.5" stroke-linecap="round" stroke-linejoin="round"/>
<path id="Path_2" d="M22.4134 6.37226L19.8129 5.04053" stroke="#292D32" stroke-width="1.5" stroke-linecap="round" stroke-linejoin="round"/>
<path id="Path_3" d="M22.4142 6.37207V9.70738" stroke="#292D32" stroke-width="1.5" stroke-linecap="round" stroke-linejoin="round"/>
<path id="Path_4" d="M1.58557 6.37226L4.18604 5.04053" stroke="#292D32" stroke-width="1.5" stroke-linecap="round" stroke-linejoin="round"/>
<path id="Path_5" d="M1.58557 6.37207L4.18604 7.7038" stroke="#292D32" stroke-width="1.5" stroke-linecap="round" stroke-linejoin="round"/>
<path id="Path_6" d="M1.58557 6.37207V9.70738" stroke="#292D32" stroke-width="1.5" stroke-linecap="round" stroke-linejoin="round"/>
<path id="Path_7" d="M11.9991 25.0405L9.39862 23.7087" stroke="#292D32" stroke-width="1.5" stroke-linecap="round" stroke-linejoin="round"/>
<path id="Path_8" d="M11.9999 25.0405L14.6003 23.7087" stroke="#292D32" stroke-width="1.5" stroke-linecap="round" stroke-linejoin="round"/>
<path id="Path_9" d="M11.9999 25.0406V21.7053" stroke="#292D32" stroke-width="1.5" stroke-linecap="round" stroke-linejoin="round"/>
</g>
</g>
</svg>
