<svg width="16" height="28" viewBox="0 0 16 28" fill="none" xmlns="http://www.w3.org/2000/svg">
<g id="MobileDevIcon">
<path id="Shape" d="M2.51416 27.0405H13.4856C14.8735 27.0387 15.998 25.9129 15.9999 24.5236L15.9999 2.55748C15.998 1.16812 14.8735 0.0423584 13.4856 0.0405273H2.51416C1.12628 0.0423584 0.00170612 1.16812 -0.00012207 2.55748L-0.00012207 24.5236C0.00170612 25.9129 1.12628 27.0387 2.51416 27.0405ZM1.37131 2.55748C1.37222 1.92595 1.88331 1.41432 2.51416 1.41341H13.4856C14.1164 1.41432 14.6275 1.92595 14.6284 2.55748L14.6284 24.5236C14.6275 25.1551 14.1164 25.6667 13.4856 25.6676H2.51416C1.88331 25.6667 1.37222 25.1551 1.37131 24.5236L1.37131 2.55748ZM6.17131 4.6168H9.82845C10.207 4.6168 10.5142 4.30927 10.5142 3.93036C10.5142 3.55144 10.207 3.24392 9.82845 3.24392H6.17131C5.79279 3.24392 5.48559 3.55144 5.48559 3.93036C5.48559 4.30927 5.79279 4.6168 6.17131 4.6168Z" fill="black"/>
</g>
</svg>
